<?xml version="1.0" encoding="UTF-8" standalone="no"?>
<!-- Created with Inkscape (http://www.inkscape.org/) -->

<svg
   xmlns:dc="http://purl.org/dc/elements/1.1/"
   xmlns:cc="http://creativecommons.org/ns#"
   xmlns:rdf="http://www.w3.org/1999/02/22-rdf-syntax-ns#"
   xmlns:svg="http://www.w3.org/2000/svg"
   xmlns="http://www.w3.org/2000/svg"
   xmlns:sodipodi="http://sodipodi.sourceforge.net/DTD/sodipodi-0.dtd"
   xmlns:inkscape="http://www.inkscape.org/namespaces/inkscape"
   width="210mm"
   height="297mm"
   viewBox="0 0 210 297"
   version="1.1"
   id="svg8"
   inkscape:version="0.92.4 (5da689c313, 2019-01-14)"
   sodipodi:docname="CHE_logo.svg">
  <defs
     id="defs2" />
  <sodipodi:namedview
     id="base"
     pagecolor="#ffffff"
     bordercolor="#666666"
     borderopacity="1.0"
     inkscape:pageopacity="0.0"
     inkscape:pageshadow="2"
     inkscape:zoom="0.50000001"
     inkscape:cx="324.12165"
     inkscape:cy="779.99496"
     inkscape:document-units="mm"
     inkscape:current-layer="layer1"
     showgrid="false"
     inkscape:window-width="2560"
     inkscape:window-height="1377"
     inkscape:window-x="-8"
     inkscape:window-y="-8"
     inkscape:window-maximized="1" />
  <metadata
     id="metadata5">
    <rdf:RDF>
      <cc:Work
         rdf:about="">
        <dc:format>image/svg+xml</dc:format>
        <dc:type
           rdf:resource="http://purl.org/dc/dcmitype/StillImage" />
        <dc:title></dc:title>
      </cc:Work>
    </rdf:RDF>
  </metadata>
  <g
     inkscape:label="Vrstva 1"
     inkscape:groupmode="layer"
     id="layer1">
    <rect
       style="opacity:1;fill:#feffff;fill-opacity:1;stroke:none;stroke-width:1.3156389;stroke-linecap:round;stroke-linejoin:round;stroke-miterlimit:10;stroke-dasharray:none;stroke-opacity:1"
       id="rect853"
       width="375.54095"
       height="388.19971"
       x="-74.227524"
       y="-47.409134" />
    <flowRoot
       xml:space="preserve"
       id="flowRoot4668"
       style="font-style:normal;font-weight:normal;font-size:53.33333588px;line-height:1.25;font-family:sans-serif;letter-spacing:0px;word-spacing:0px;fill:#000000;fill-opacity:1;stroke:none"
       transform="scale(0.26458333)"><flowRegion
         id="flowRegion4670"
         style="font-size:53.33333588px"><rect
           id="rect4672"
           width="128.33986"
           height="127.63276"
           x="292.74222"
           y="307.22556"
           style="font-size:53.33333588px" /></flowRegion><flowPara
         id="flowPara4674"
         style="font-size:53.33333588px">E=mc²E=mc²</flowPara></flowRoot>    <path
       style="opacity:1;fill:none;fill-opacity:1;stroke:#000000;stroke-width:4.72680998;stroke-linejoin:round;stroke-miterlimit:4;stroke-dasharray:none;stroke-opacity:1"
       id="path5073"
       sodipodi:type="arc"
       sodipodi:cx="86.788193"
       sodipodi:cy="239.42239"
       sodipodi:rx="52.838871"
       sodipodi:ry="49.30154"
       sodipodi:start="5.2359878"
       sodipodi:end="4.1887902"
       d="m 113.20763,196.72601 a 52.838871,49.30154 0 0 1 24.61899,55.45656 52.838871,49.30154 0 0 1 -51.038428,36.54136 52.838871,49.30154 0 0 1 -51.038429,-36.54136 52.838871,49.30154 0 0 1 24.618994,-55.45656"
       sodipodi:open="true" />
    <path
       style="fill:none;stroke:#000000;stroke-width:4.87001753;stroke-linecap:butt;stroke-linejoin:miter;stroke-miterlimit:4;stroke-dasharray:none;stroke-opacity:1"
       d="m 60.075777,198.79343 v -54.0242 h 54.297843 v 54.44132"
       id="path5075"
       inkscape:connector-curvature="0" />
    <path
       sodipodi:type="spiral"
       style="fill:none;fill-rule:evenodd;stroke:#000000;stroke-width:1.25063515"
       id="path5077"
       sodipodi:cx="100.41126"
       sodipodi:cy="103.32962"
       sodipodi:expansion="1"
       sodipodi:revolution="3"
       sodipodi:radius="16.360153"
       sodipodi:argument="-16.823658"
       sodipodi:t0="0"
       d="m 100.41126,103.32962 c -0.36055,0.73678 -1.171049,-0.12252 -1.224577,-0.59926 -0.145059,-1.29196 1.326537,-2.01219 2.423107,-1.8499 1.9615,0.2903 2.92373,2.46061 2.47521,4.24695 -0.65822,2.62153 -3.60748,3.85516 -6.070792,3.10053 -3.28321,-1.00581 -4.794632,-4.75856 -3.725844,-7.89464 1.34496,-3.94643 5.911566,-5.738176 9.718476,-4.351158 4.61069,1.679864 6.68407,7.065638 4.97648,11.542328 -2.01234,5.27562 -8.22037,7.63142 -13.366167,5.60179 -5.941026,-2.34329 -8.579763,-9.37555 -6.227109,-15.190013 2.673236,-6.606764 10.531034,-9.528787 17.013856,-6.852425 7.27274,3.002475 10.47831,11.686748 7.47774,18.837698 -3.3312,7.93891 -12.84264,11.42821 -20.661541,8.10306" />
    <path
       sodipodi:type="spiral"
       style="fill:none;fill-rule:evenodd;stroke:#000000;stroke-width:1.25063515"
       id="path5081"
       sodipodi:cx="133.87889"
       sodipodi:cy="64.1035"
       sodipodi:expansion="1"
       sodipodi:revolution="3"
       sodipodi:radius="15.124415"
       sodipodi:argument="-21.20575"
       sodipodi:t0="0"
       d="m 133.87889,64.1035 c -0.53621,-0.536209 0.45825,-0.987345 0.89122,-0.891214 1.1733,0.260511 1.36191,1.763363 0.89121,2.673645 -0.84198,1.628282 -3.0284,1.819033 -4.45608,0.891211 -2.09516,-1.361616 -2.28969,-4.310606 -0.8912,-6.238504 1.86396,-2.569584 5.5989,-2.766138 8.02093,-0.891207 3.04788,2.359408 3.24556,6.890098 0.8912,9.803363 -2.85144,3.528353 -8.18293,3.726717 -11.58579,0.891204 -4.01015,-3.341554 -4.20895,-9.476785 -0.8912,-13.368222 3.83048,-4.492818 10.77132,-4.691921 15.15065,-0.891201 4.97608,4.31862 5.17539,12.06633 0.8912,16.933081 -4.80622,5.459759 -13.36169,5.65923 -18.71551,0.891198 -5.94376,-5.29342 -6.14334,-14.657313 -0.8912,-20.49794" />
    <path
       sodipodi:type="spiral"
       style="fill:none;fill-rule:evenodd;stroke:#000000;stroke-width:1.25063515"
       id="path5083"
       sodipodi:cx="83.471924"
       sodipodi:cy="52.165012"
       sodipodi:expansion="1"
       sodipodi:revolution="3"
       sodipodi:radius="26.222364"
       sodipodi:argument="-20.521698"
       sodipodi:t0="0"
       d="m 83.471924,52.165012 c -0.133016,-1.308001 1.697534,-0.824625 2.173984,-0.221081 1.291151,1.635565 -0.101992,3.861616 -1.731821,4.569051 -2.915383,1.265434 -6.062301,-0.873789 -6.964117,-3.684725 -1.323452,-4.125162 1.646182,-8.300889 5.637628,-9.359183 5.31997,-1.410539 10.553988,2.417493 11.754249,7.590531 1.510405,6.50974 -3.187973,12.814261 -9.543434,14.149315 -7.697315,1.616929 -15.078626,-3.957921 -16.544381,-11.496337 -1.727342,-8.883762 4.727527,-17.34555 13.44924,-18.939447 10.069562,-1.840218 19.614178,5.496906 21.334518,15.402143 1.95475,11.254959 -6.266133,21.884011 -17.355051,23.729579 -12.44009,2.07045 -24.154711,-7.035238 -26.124646,-19.307949 -2.187,-13.625035 7.804266,-26.426066 21.260853,-28.519712" />
    <path
       sodipodi:type="spiral"
       style="fill:none;fill-rule:evenodd;stroke:#000000;stroke-width:1.25063515"
       id="path5085"
       sodipodi:cx="67.111755"
       sodipodi:cy="107.87796"
       sodipodi:expansion="1"
       sodipodi:revolution="3"
       sodipodi:radius="8.4127884"
       sodipodi:argument="-20.472935"
       sodipodi:t0="0"
       d="m 67.111755,107.87796 c -0.02217,-0.42122 0.55686,-0.2377 0.700097,-0.0369 0.388163,0.5443 -0.09307,1.23584 -0.626403,1.43704 -0.954005,0.35991 -1.928961,-0.3748 -2.173984,-1.28965 -0.359581,-1.34258 0.65732,-2.63422 1.952903,-2.91093 1.726809,-0.3688 3.344153,0.93972 3.647871,2.61616 0.382199,2.10962 -1.221958,4.05639 -3.279403,4.38481 -2.491841,0.39776 -4.769954,-1.50409 -5.121758,-3.94265 -0.414589,-2.87376 1.786161,-5.48434 4.605903,-5.8587 3.255505,-0.43222 6.199276,2.06818 6.595645,5.26915 0.450379,3.63715 -2.350169,6.9146 -5.932403,7.33259 -4.018725,0.46892 -7.630203,-2.63214 -8.069532,-6.59566 -0.487738,-4.40025 2.914085,-8.346013 7.258903,-8.806471" />
    <path
       sodipodi:type="spiral"
       style="fill:none;fill-rule:evenodd;stroke:#000000;stroke-width:1.25063515"
       id="path5087"
       sodipodi:cx="190.03397"
       sodipodi:cy="65.43"
       sodipodi:expansion="1"
       sodipodi:revolution="3"
       sodipodi:radius="10.082942"
       sodipodi:argument="-20.1541"
       sodipodi:t0="0"
       d="m 190.03397,65.43 c 0.13301,-0.487729 0.72307,-0.06132 0.81063,0.221083 0.23729,0.765306 -0.57021,1.371565 -1.2528,1.400194 -1.22099,0.05121 -2.05458,-1.151263 -1.98975,-2.284526 0.0952,-1.663108 1.73776,-2.751118 3.31625,-2.579303 2.10387,0.229001 3.45301,2.325874 3.16886,4.347967 -0.35758,2.544598 -2.91468,4.157592 -5.37969,3.758414 -2.98545,-0.483457 -4.86372,-3.503864 -4.34797,-6.411409 0.60779,-3.426442 4.09328,-5.570804 7.44313,-4.937525 3.86754,0.731145 6.27854,4.682844 5.52708,8.474852 -0.85385,4.30872 -5.27252,6.986721 -9.50657,6.116635 -4.74997,-0.976104 -7.69524,-5.862278 -6.70619,-10.538294 1.09802,-5.191265 6.45209,-8.403992 11.57001,-7.295746" />
    <path
       sodipodi:type="spiral"
       style="fill:none;fill-rule:evenodd;stroke:#000000;stroke-width:1.25063515"
       id="path5089"
       sodipodi:cx="164.38837"
       sodipodi:cy="26.961514"
       sodipodi:expansion="1"
       sodipodi:revolution="3"
       sodipodi:radius="20.382858"
       sodipodi:argument="-19.99552"
       sodipodi:t0="0"
       d="m 164.38837,26.961514 c 0.42122,-0.93112 1.46294,0.108416 1.54758,0.700097 0.22936,1.603419 -1.57609,2.555822 -2.94778,2.395066 -2.45362,-0.287555 -3.73374,-2.953986 -3.24255,-5.195455 0.72084,-3.289447 4.34708,-4.936906 7.44314,-4.090035 4.12655,1.128746 6.15024,5.745115 4.93751,9.690813 -1.52609,4.965258 -7.14539,7.368732 -11.93849,5.785003 -5.80509,-1.918108 -8.59017,-8.546905 -6.63248,-14.186171 2.30706,-6.645679 9.94918,-9.813475 16.43385,-7.479972 7.48679,2.694122 11.03801,11.351988 8.32745,18.681529 -3.0799,8.32829 -12.75515,12.263411 -20.92921,9.174941 -9.17006,-3.464797 -13.48944,-14.158573 -10.02242,-23.176887 3.84904,-10.0120371 15.5622,-14.7159438 25.42456,-10.8699094" />
    <path
       sodipodi:type="spiral"
       style="fill:none;fill-rule:evenodd;stroke:#000000;stroke-width:1.25063515"
       id="path5091"
       sodipodi:cx="124.15123"
       sodipodi:cy="19.002525"
       sodipodi:expansion="1"
       sodipodi:revolution="3"
       sodipodi:radius="11.470787"
       sodipodi:argument="-19.939465"
       sodipodi:t0="0"
       d="m 124.15123,19.002525 c 0.26603,-0.509898 0.81859,0.107043 0.84749,0.442167 0.0783,0.908165 -0.96617,1.386378 -1.73182,1.252804 -1.36959,-0.238933 -2.00479,-1.777515 -1.65813,-3.021471 0.50875,-1.825554 2.59821,-2.6369 4.31113,-2.063441 2.28304,0.76433 3.27457,3.421993 2.46876,5.600775 -1.01404,2.741774 -4.2472,3.915071 -6.89043,2.874078 -3.2013,-1.260782 -4.55719,-5.073199 -3.2794,-8.180078 1.50584,-3.661351 5.89969,-5.200328 9.46973,-3.684716 4.12176,1.749833 5.84415,6.726504 4.09004,10.759382 -1.99313,4.582413 -7.55355,6.488434 -12.04904,4.495354 -5.04325,-2.235935 -7.13307,-8.380768 -4.90067,-13.338687 2.47839,-5.5042301 9.20811,-7.7779641 14.62834,-5.3059905" />
    <path
       style="fill:none;stroke:#000000;stroke-width:1.25063515px;stroke-linecap:butt;stroke-linejoin:miter;stroke-opacity:1"
       d="m 34.127603,233.86468 c 2.512535,-15.97816 95.673597,10.1614 103.959057,2.03227"
       id="path5095"
       inkscape:connector-curvature="0"
       sodipodi:nodetypes="cc" />
  </g>
</svg>
